<svg xmlns="http://www.w3.org/2000/svg" width="109.451" height="65.554" viewBox="0 0 109.451 65.554"><defs><style>.a{fill:#707070;font-size:4px;font-family:SegoeUI, Segoe UI;}.b{font-family:OptimusPrinceps;}.c{fill:#f2c0a2;}.d{fill:#04adbf;}</style></defs><text class="a" transform="translate(29.152 9.61)"><tspan x="0" y="0"></tspan><tspan class="b"><tspan x="0" y="5"></tspan></tspan></text><g transform="translate(0 0)"><path class="c" d="M67.151,22.609A32.237,32.237,0,0,0,5.622,41.869l2.085-.653a30.053,30.053,0,1,1,3.467,7.377L9.341,49.781A32.349,32.349,0,0,0,36.45,64.465a32.225,32.225,0,0,0,30.7-41.856Z" transform="translate(-4.147 0)"/></g><g transform="translate(12.028 9.874)"><path class="c" d="M111.974,82.532l.627-2.092-10.92-3.276a1.091,1.091,0,0,0-1.085.274l-2.184,2.184a1.092,1.092,0,0,0,.329,1.77l9.828,4.368.887-2-8.375-3.723.6-.6Z" transform="translate(-98.092 -77.117)"/></g><g transform="translate(12.028 7.691)"><path class="c" d="M122.12,61.164a1.092,1.092,0,0,0-1.092-1.092h0a8.937,8.937,0,0,0-6.361,2.635l-9.26,9.259-3.769-.942a1.092,1.092,0,0,0-1.037.287l-2.184,2.184a1.091,1.091,0,0,0,.21,1.708l5.226,3.136,3.136,5.226a1.091,1.091,0,0,0,.8.522,1.07,1.07,0,0,0,.133.008,1.1,1.1,0,0,0,.773-.319l2.184-2.184a1.1,1.1,0,0,0,.287-1.037l-.941-3.764,9.408-9.315A9.009,9.009,0,0,0,122.12,61.164ZM108.246,75.675a1.092,1.092,0,0,0-.292,1.041l.942,3.769-.758.758-2.556-4.261a1.088,1.088,0,0,0-.374-.374l-4.261-2.556.758-.758,3.769.942a1.092,1.092,0,0,0,1.037-.287l9.7-9.7a6.755,6.755,0,0,1,3.641-1.895,6.733,6.733,0,0,1-1.775,3.589Z" transform="translate(-98.094 -60.072)"/></g><g transform="translate(25.222 17.208)"><path class="c" d="M209.74,145.465,206.464,134.4l-2.095.62,3.078,10.394-.663.585-3.641-8.446-2.006.865,4.237,9.828a1.093,1.093,0,0,0,.764.633,1.117,1.117,0,0,0,.239.026,1.089,1.089,0,0,0,.722-.273l2.315-2.042A1.093,1.093,0,0,0,209.74,145.465Z" transform="translate(-201.138 -134.403)"/></g><g transform="translate(0.053 26.637)"><path class="c" d="M25.311,241.619c-7.777,3.685-13.878,4.162-16.735,1.306-4.951-4.951.426-19.336,12.507-33.463l-1.66-1.42C6.173,223.536,1.076,238.516,7.031,244.469a9.426,9.426,0,0,0,6.926,2.491c3.4,0,7.559-1.126,12.29-3.368Z" transform="translate(-4.565 -208.043)"/></g><g transform="translate(37.145 30.622)"><path class="c" d="M314.888,246.3a1.092,1.092,0,0,0-.963-.577h-3.693l-2.975-5.948a1.093,1.093,0,0,0-.977-.6h-10.92a1.092,1.092,0,0,0-1.092,1.092V249a1.091,1.091,0,0,0,1.092,1.092h3.276v12.012a1.091,1.091,0,0,0,1.092,1.092h5.46a1.092,1.092,0,0,0,.773-.321l4.368-4.368a1.087,1.087,0,0,0,.32-.772V253.7l4.185-6.277A1.092,1.092,0,0,0,314.888,246.3Zm-6.241,6.462a1.1,1.1,0,0,0-.183.606v3.916l-3.728,3.728h-3.917V249a1.091,1.091,0,0,0-1.092-1.092H296.45v-6.552H305.6l2.975,5.948a1.093,1.093,0,0,0,.977.6h2.328Z" transform="translate(-294.267 -239.173)"/></g><g transform="translate(39.33 12.058)"><path class="c" d="M330.524,110.559l-4.054-7.094a1.092,1.092,0,0,0-.948-.55h-6.552a1.093,1.093,0,0,0-.909.486l-1.86,2.79h-2.692v-5.46h5.46a1.089,1.089,0,0,0,.772-.32l4.048-4.048H328.8V94.179h-5.46a1.089,1.089,0,0,0-.772.32l-4.048,4.048h-6.1a1.092,1.092,0,0,0-1.092,1.092v7.644a1.092,1.092,0,0,0,1.092,1.092h4.368a1.093,1.093,0,0,0,.909-.486l1.86-2.79h5.335l4.054,7.094a1.092,1.092,0,0,0,.948.55h4.368v-2.184Z" transform="translate(-311.327 -94.179)"/></g><g transform="translate(15.305 36.082)"><path class="c" d="M140.067,285.1h-6.1l-2.956-2.956a1.089,1.089,0,0,0-.772-.32h-5.46a1.092,1.092,0,0,0-1.092,1.092v7.644a1.092,1.092,0,0,0,1.092,1.092h4.368v10.92a1.092,1.092,0,0,0,1.747.874l4.368-3.276a1.093,1.093,0,0,0,.437-.874v-2.752l5.051-4.039a1.093,1.093,0,0,0,.409-.853v-5.46A1.092,1.092,0,0,0,140.067,285.1Zm-1.092,6.028-5.051,4.039a1.093,1.093,0,0,0-.409.853v2.73l-2.184,1.638v-9.828a1.092,1.092,0,0,0-1.092-1.092h-4.368V284h3.916l2.956,2.956a1.089,1.089,0,0,0,.772.32h5.46Z" transform="translate(-123.687 -281.819)"/></g><g transform="translate(1.109 17.518)"><path class="c" d="M21.388,142.815l-3.276-5.46a1.091,1.091,0,0,0-.936-.53H16.084v2.184h.474l2.519,4.2L16.4,145.881a1.089,1.089,0,0,0-.32.772v3.276H12.808v2.184h4.368a1.092,1.092,0,0,0,1.092-1.092v-3.916l2.956-2.956A1.093,1.093,0,0,0,21.388,142.815Z" transform="translate(-12.808 -136.825)"/></g><g transform="translate(20.277 1.138)"><path class="c" d="M176.112,8.889v1.332l-3.541.886a1.109,1.109,0,0,0-.341.151l-2.749,1.832L163.5,10.1l-.977,1.954,6.552,3.276a1.092,1.092,0,0,0,1.093-.069l3.119-2.079,4.186-1.046a1.092,1.092,0,0,0,.828-1.059V8.889Z" transform="translate(-162.519 -8.889)"/></g><g transform="translate(43.897 16.751)"><path class="d" d="M49.528,162.884a16.026,16.026,0,0,0,0-32.051c-3.766,0-8.272,2.2-13.775,6.74l-.08.066,6.641,6.672c5.079-4.062,7.127-4.111,7.214-4.111a6.659,6.659,0,0,1,0,13.318c-.091,0-2.3-.052-7.819-4.6-.638-.526-11-10.594-11.908-11.342-5.5-4.535-10.01-6.74-13.775-6.74a16.026,16.026,0,1,0,0,32.051c3.766,0,8.272-2.2,13.775-6.74l.074-.062-6.62-6.689c-5.089,4.074-7.142,4.124-7.23,4.124a6.659,6.659,0,1,1,0-13.318c.09,0,2.53-.239,7.747,4.543,2.661,2.439,11.317,10.892,11.98,11.4,5.656,4.345,10.01,6.74,13.776,6.74Z" transform="translate(0 -130.833)"/></g></svg>