<svg xmlns="http://www.w3.org/2000/svg" width="76.247" height="48.274" viewBox="0 0 76.247 48.274">
  <defs>
    <style>
      .cls-1 {
        fill: #707070;
        font-size: 1px;
        font-family: SegoeUI, Segoe UI;
      }

      .cls-2 {
        font-family: OptimusPrinceps;
      }

      .cls-3 {
        fill: #f2c0a2;
      }

      .cls-4 {
        fill: #fff;
      }
    </style>
  </defs>
  <g id="Component_10_6" data-name="Component 10 – 6" transform="translate(0)">
    <text id="_" data-name="
" class="cls-1" transform="translate(5.411 23.203)"><tspan x="0" y="0"></tspan><tspan class="cls-2"><tspan x="0" y="1"></tspan></tspan></text>
    <g id="around" transform="translate(0 0)">
      <g id="Group_2" data-name="Group 2">
        <g id="Group_1" data-name="Group 1">
          <path id="Path_1" data-name="Path 1" class="cls-3" d="M50.543,16.65A23.739,23.739,0,0,0,5.233,30.833l1.535-.481a22.131,22.131,0,1,1,2.553,5.432l-1.349.875A23.822,23.822,0,0,0,27.935,47.472,23.731,23.731,0,0,0,50.543,16.65Z" transform="translate(-4.147 0)"/>
        </g>
      </g>
      <g id="Group_4" data-name="Group 4" transform="translate(8.858 7.271)">
        <g id="Group_3" data-name="Group 3">
          <path id="Path_2" data-name="Path 2" class="cls-3" d="M108.315,81.1l.462-1.541-8.042-2.412a.8.8,0,0,0-.8.2l-1.608,1.608a.8.8,0,0,0,.242,1.3l7.237,3.217.653-1.47-6.167-2.741.441-.441Z" transform="translate(-98.092 -77.117)"/>
        </g>
      </g>
      <g id="Group_6" data-name="Group 6" transform="translate(8.858 5.664)">
        <g id="Group_5" data-name="Group 5">
          <path id="Path_3" data-name="Path 3" class="cls-3" d="M115.787,60.876a.8.8,0,0,0-.8-.8h0a6.581,6.581,0,0,0-4.684,1.94l-6.819,6.818-2.775-.694a.8.8,0,0,0-.764.211L98.33,69.957a.8.8,0,0,0,.154,1.258l3.849,2.309,2.31,3.849a.8.8,0,0,0,.591.384.788.788,0,0,0,.1.006.81.81,0,0,0,.569-.235l1.608-1.608a.806.806,0,0,0,.211-.764l-.693-2.772,6.928-6.859A6.634,6.634,0,0,0,115.787,60.876ZM105.57,71.562a.8.8,0,0,0-.215.766l.694,2.775-.558.558-1.883-3.138a.8.8,0,0,0-.276-.276L100.2,70.365l.558-.558,2.775.694a.8.8,0,0,0,.764-.211l7.141-7.141a4.975,4.975,0,0,1,2.681-1.4,4.958,4.958,0,0,1-1.307,2.643Z" transform="translate(-98.094 -60.072)"/>
        </g>
      </g>
      <g id="Group_8" data-name="Group 8" transform="translate(18.573 12.672)">
        <g id="Group_7" data-name="Group 7">
          <path id="Path_4" data-name="Path 4" class="cls-3" d="M207.472,142.549,205.06,134.4l-1.542.457,2.267,7.654-.488.431-2.681-6.219-1.477.637,3.12,7.237a.8.8,0,0,0,.563.466.824.824,0,0,0,.176.019.8.8,0,0,0,.532-.2l1.7-1.5A.8.8,0,0,0,207.472,142.549Z" transform="translate(-201.138 -134.403)"/>
        </g>
      </g>
      <g id="Group_10" data-name="Group 10" transform="translate(0.039 19.615)">
        <g id="Group_9" data-name="Group 9">
          <path id="Path_5" data-name="Path 5" class="cls-3" d="M19.843,232.768c-5.727,2.714-10.22,3.065-12.324.962-3.646-3.646.314-14.239,9.21-24.642l-1.222-1.045C5.749,219.452,2,230.483,6.381,234.867a6.942,6.942,0,0,0,5.1,1.834,22.012,22.012,0,0,0,9.05-2.48Z" transform="translate(-4.565 -208.043)"/>
        </g>
      </g>
      <g id="Group_12" data-name="Group 12" transform="translate(27.354 22.55)">
        <g id="Group_11" data-name="Group 11">
          <path id="Path_6" data-name="Path 6" class="cls-3" d="M309.452,244.423a.8.8,0,0,0-.709-.425h-2.72l-2.191-4.38a.805.805,0,0,0-.72-.445h-8.042a.8.8,0,0,0-.8.8v6.433a.8.8,0,0,0,.8.8h2.412v8.846a.8.8,0,0,0,.8.8h4.021a.8.8,0,0,0,.569-.236l3.217-3.217a.8.8,0,0,0,.236-.569V249.87l3.082-4.622A.8.8,0,0,0,309.452,244.423Zm-4.6,4.758a.808.808,0,0,0-.135.446v2.884l-2.745,2.745h-2.885V246.41a.8.8,0,0,0-.8-.8h-2.412v-4.825h6.74l2.191,4.38a.805.805,0,0,0,.72.445h1.714Z" transform="translate(-294.267 -239.173)"/>
        </g>
      </g>
      <g id="Group_14" data-name="Group 14" transform="translate(28.962 8.88)">
        <g id="Group_13" data-name="Group 13">
          <path id="Path_7" data-name="Path 7" class="cls-3" d="M325.464,106.241l-2.985-5.224a.8.8,0,0,0-.7-.405h-4.825a.805.805,0,0,0-.669.358l-1.369,2.055h-1.982V99h4.021a.8.8,0,0,0,.569-.236l2.981-2.981h3.688V94.179h-4.021a.8.8,0,0,0-.569.236L316.623,97.4h-4.492a.8.8,0,0,0-.8.8v5.629a.8.8,0,0,0,.8.8h3.217a.805.805,0,0,0,.669-.358l1.369-2.055h3.928l2.985,5.224a.8.8,0,0,0,.7.405h3.217v-1.608Z" transform="translate(-311.327 -94.179)"/>
        </g>
      </g>
      <g id="Group_16" data-name="Group 16" transform="translate(11.271 26.571)">
        <g id="Group_15" data-name="Group 15">
          <path id="Path_8" data-name="Path 8" class="cls-3" d="M135.749,284.231h-4.492l-2.177-2.177a.8.8,0,0,0-.569-.236h-4.021a.8.8,0,0,0-.8.8v5.629a.8.8,0,0,0,.8.8h3.217V297.1a.8.8,0,0,0,1.287.643l3.217-2.413a.8.8,0,0,0,.322-.643v-2.026l3.719-2.975a.8.8,0,0,0,.3-.628v-4.021A.8.8,0,0,0,135.749,284.231Zm-.8,4.439-3.719,2.975a.8.8,0,0,0-.3.628v2.01l-1.608,1.206v-7.237a.8.8,0,0,0-.8-.8H125.3v-4.021h2.884l2.177,2.177a.8.8,0,0,0,.569.236h4.021Z" transform="translate(-123.687 -281.819)"/>
        </g>
      </g>
      <g id="Group_18" data-name="Group 18" transform="translate(0.817 12.9)">
        <g id="Group_17" data-name="Group 17">
          <path id="Path_9" data-name="Path 9" class="cls-3" d="M19.126,141.236l-2.412-4.021a.8.8,0,0,0-.689-.39h-.8v1.608h.349l1.855,3.092-1.969,1.969a.8.8,0,0,0-.236.569v2.412H12.808v1.608h3.217a.8.8,0,0,0,.8-.8V144.4l2.177-2.177A.805.805,0,0,0,19.126,141.236Z" transform="translate(-12.808 -136.825)"/>
        </g>
      </g>
      <g id="Group_20" data-name="Group 20" transform="translate(14.932 0.838)">
        <g id="Group_19" data-name="Group 19">
          <path id="Path_10" data-name="Path 10" class="cls-3" d="M172.529,8.889V9.87l-2.608.652a.817.817,0,0,0-.251.111l-2.024,1.349-4.408-2.2-.72,1.439,4.825,2.412a.8.8,0,0,0,.805-.051l2.3-1.531,3.082-.77a.8.8,0,0,0,.61-.78V8.889Z" transform="translate(-162.519 -8.889)"/>
        </g>
      </g>
    </g>
    <g id="forever" transform="translate(31.087 13.969)">
      <path id="Path_11" data-name="Path 11" class="cls-4" d="M34.12,152.914a11.04,11.04,0,0,0,0-22.081c-2.594,0-5.7,1.519-9.49,4.643l-.055.046,4.575,4.6c3.5-2.8,4.91-2.832,4.97-2.832a4.587,4.587,0,1,1,0,9.175c-.063,0-1.583-.036-5.386-3.17-.44-.362-7.579-7.3-8.2-7.814-3.792-3.125-6.9-4.643-9.49-4.643a11.04,11.04,0,1,0,0,22.08c2.594,0,5.7-1.519,9.49-4.643l.051-.043-4.561-4.608c-3.506,2.806-4.92,2.841-4.981,2.841a4.587,4.587,0,1,1,0-9.175c.062,0,1.743-.165,5.337,3.13,1.834,1.681,7.8,7.5,8.253,7.854,3.9,2.993,6.9,4.643,9.49,4.643Z" transform="translate(0 -130.833)"/>
    </g>
  </g>
</svg>
